<svg role="img" viewBox="0 0 24 24" xmlns="http://www.w3.org/2000/svg">
<title>tqdm</title>
<path style="fill:#2196f3" d="m 12,14.562 a 2.3385,2.3385 0 1 1 0,-4.677 2.3385,2.3385 0 0 1 0,4.677 z"/>
<path style="fill:#2196f3" d="M 12,0 C 5.392,0 0.036,5.473 0.036,12.224 c 0,5.579 3.659,10.281 8.658,11.746 0.428,0.126 0.87,-0.162 0.962,-0.598 l 0.141,-0.669 c 0.086,-0.41 -0.169,-0.799 -0.57,-0.92 -4.039,-1.221 -6.986,-5.037 -6.986,-9.559 0,-5.507 4.37,-9.972 9.76,-9.972 5.39,0 9.76,4.464 9.76,9.972 0,4.515 -2.938,8.325 -6.967,9.552 -0.4,0.122 -0.654,0.511 -0.567,0.919 l 0.142,0.67 c 0.093,0.437 0.535,0.723 0.963,0.596 4.986,-1.474 8.633,-6.169 8.633,-11.738 C 23.964,5.473 18.608,0 12,0 Z"/>
<path style="fill:#ffc107" d="m 19.152,12.224 c 0,-4.04 -3.202,-7.315 -7.152,-7.315 -3.95,0 -7.152,3.275 -7.152,7.315 0,3.191 1.999,5.903 4.786,6.902 a 0.79,0.79 0 0 0 1.037,-0.582 l 0.042,-0.199 A 0.772,0.772 0 0 0 10.224,17.456 C 8.106,16.704 6.585,14.647 6.585,12.224 6.585,9.165 9.009,6.685 12,6.685 c 2.991,0 5.415,2.48 5.415,5.539 0,2.418 -1.516,4.472 -3.628,5.227 a 0.772,0.772 0 0 0 -0.487,0.89 l 0.042,0.199 a 0.791,0.791 0 0 0 1.038,0.58 c 2.78,-1.003 4.772,-3.71 4.772,-6.896 z"/>
</svg>
