<svg role="img" viewBox="-745 -85 1010 988" xmlns="http://www.w3.org/2000/svg">
<title>tqdm</title>
<path style="fill:#2196f3" d="m -381.05358,902.12129 c -14.94757,-1.29 -35.08325,-7.6841 -63.1896,-20.0659 -89.48789,-39.4226 -167.51142,-106.49326 -220.31946,-189.39124 -42.03424,-65.9853 -66.78361,-136.29323 -76.56302,-217.5 -2.50606,-20.80991 -3.0641,-71.83184 -1.03904,-95 8.82145,-100.92395 44.4053,-191.77659 105.94555,-270.5 44.65726,-57.126394 105.39255,-106.8016945 170.41464,-139.381878 35.70812,-17.892024 75.90045,-32.244107 115.08831,-41.096324 72.28213,-16.32794 150.04311,-16.32794 222.32524,0 72.610707,16.402163 142.314067,49.495469 199.837377,94.877488 65.493553,51.67 118.520783,119.809194 150.274713,193.100714 21.6543,49.9805 33.56819,94.46474 40.44109,151 2.5435,20.92242 2.5348,85.19947 -0.014,106 -2.5759,21.01904 -5.4532,38.62453 -8.8253,54 -27.09371,123.53369 -97.45218,230.09183 -200.876503,304.22765 -51.78649994,37.12119 -122.55961,69.14149 -154.499997,69.90139 -13.69855,0.3259 -21.52387,-2.3706 -28.65773,-9.8749 -10.81146,-11.3728 -15.28214,-29.10352 -11.6121,-46.05355 1.48991,-6.88111 2.60276,-9.37046 6.51211,-14.56692 7.60684,-10.11131 17.21545,-15.8603 46.338977,-27.72537 64.60036,-26.31852 118.57159,-64.76158 162.02475,-115.4083 53.019703,-61.79699 86.428963,-138.34439 96.455863,-221 2.18894,-18.04422 2.98464,-57.58999 1.53021,-76.0503 C 158.47634,238.51491 65.909317,106.87382 -73.053583,45.197536 -110.90399,28.398286 -148.25882,18.218996 -193.05358,12.497226 c -20.07339,-2.5640305 -73.14559,-2.5726705 -93,-0.0151 -57.24042,7.3734 -105.02851,22.65098 -152,48.59355 -108.96404,60.181304 -183.91718,164.580564 -206.47331,287.588474 -4.79702,26.16015 -5.50743,35.54039 -5.49078,72.5 0.0173,38.29243 1.05499,50.08943 7.03729,80 23.17091,115.85098 94.28256,215.47638 196.51776,275.31577 12.95902,7.58506 38.95301,20.26303 54.59238,26.62616 30.63916,12.46606 41.00644,18.55881 48.64783,28.58989 16.31032,21.41103 6.1487,61.54052 -17.33117,68.44282 -9.28371,2.7292 -10.49253,2.8461 -20.5,1.9825 z"/>
<path style="fill:#ffc107" d="m -337.05358,705.79644 c -12.23467,-3.39333 -21.50972,-7.21644 -39.02374,-16.08532 -51.15521,-25.90433 -94.52243,-66.64351 -123.37482,-115.89832 -19.88618,-33.94833 -32.19843,-69.38838 -38.78791,-111.64865 -2.24651,-14.40753 -2.5766,-64.18859 -0.52053,-78.5 5.57768,-38.82368 18.53218,-78.23336 35.84647,-109.05076 30.67779,-54.60282 74.92218,-96.51507 130.86053,-123.96279 42.94029,-21.06986 84.80092,-30.72559 133,-30.6783 49.08663,0.0482 92.95503,10.62607 137,33.03454 27.841167,14.16457 52.733837,32.33381 75.528667,55.12864 24.1063501,24.10635 42.16867,49.30241 56.97488,79.47718 21.5301,43.87791 31.17896,85.2077 31.17896,133.55149 0,28.50951 -2.72494,50.02418 -9.72649,76.79519 -10.31343,39.4342 -30.81102,80.02209 -56.9273499,112.72354 -10.2233601,12.80113 -32.2088101,34.78658 -45.0099401,45.00994 -34.66544,27.68483 -84.902087,52.50458 -106.185337,52.46156 -17.25223,-0.0349 -29.39162,-19.45973 -28.11625,-44.99023 0.79289,-15.87208 5.9788,-21.51573 28.606,-31.13095 30.41808,-12.92588 52.58718,-27.38653 74.039047,-48.29479 19.67299,-19.17447 33.34611,-37.95443 45.50172,-62.49639 16.14358,-32.59359 23.07581,-62.6581 23.07581,-100.07787 0,-37.3377 -6.82679,-67.04119 -22.93747,-99.80134 -28.22241,-57.38869 -77.355487,-98.99167 -138.963197,-117.6658 -54.03237,-16.37795 -113.73411,-11.29628 -165.14422,14.0567 -97.30813,47.98765 -146.79446,157.97448 -118.39971,263.15165 9.94219,36.82694 29.27943,70.55807 56.28826,98.18703 23.40239,23.93971 47.50957,39.89121 82.41828,54.53542 17.24405,7.23388 23.50354,13.88255 25.36043,26.93717 1.67719,11.7912 -2.69868,28.90664 -9.75234,38.14453 -7.05686,9.2421 -17.16619,11.42572 -32.80975,7.08693 z"/>
<path style="fill:#2196f3" d="m -247.05358,518.99817 c -44.68576,-2.97599 -81.00153,-36.09611 -89.02099,-81.18747 -5.35582,-30.1144 4.439,-61.93692 26.01672,-84.52599 13.71931,-14.36235 30.8006,-24.07166 49.65785,-28.22644 7.84751,-1.72902 11.75202,-1.98779 24.34642,-1.61359 16.1837,0.48085 21.39092,1.53537 35.03583,7.09518 28.2637,11.51642 50.72941,38.44424 57.66999,69.12429 2.66356,11.77398 2.82168,29.70555 0.36509,41.40216 -6.66494,31.7339 -29.27283,58.97724 -59.02762,71.13046 -14.96006,6.11038 -27.34321,7.98019 -45.04329,6.8014 z"/>
</svg>
